<svg xmlns="http://www.w3.org/2000/svg" viewBox="0 0 512 512">
  <rect width="512" height="512" rx="96" fill="#f8fafc"/>
  <path d="M116 205 130 38l64 76c39-18 84-25 130-20 22 2 43 8 63 17l69-73 14 167 42 73c-37 64-124 96-256 96S37 342 0 278z" fill="#0f172a"/>
  <path d="M141 62 184 132l-45 18zM371 132l43-70 2 88z" fill="#ff7ad8"/>
  <path d="M194 108c39-18 84-25 130-20 25 3 49 10 71 21l-17 21c-76-23-147-22-213 2z" fill="#475569"/>
  <path d="M111 251c48 3 86 13 117 31-4 36-31 65-67 65-38 0-68-31-68-69 0-10 2-19 5-27z" fill="#050812"/>
  <path d="M401 251c-48 3-86 13-117 31 4 36 31 65 67 65 38 0 68-31 68-69 0-10-2-19-5-27z" fill="#050812"/>
  <path d="M119 264c38 4 68 12 93 25-7 24-27 40-51 40-30 0-53-24-53-53 0-4 0-8 1-12zM393 264c-38 4-68 12-93 25 7 24 27 40 51 40 30 0 53-24 53-53 0-4 0-8-1-12z" fill="#ffd92f"/>
  <circle cx="173" cy="275" r="15" fill="#0f172a"/>
  <circle cx="339" cy="275" r="15" fill="#0f172a"/>
  <path d="M224 374c0-18 16-32 32-32s32 14 32 32c-18 17-45 17-64 0z" fill="#ff7ad8"/>
  <path d="M256 394v42" stroke="#0f172a" stroke-width="16" stroke-linecap="round"/>
</svg>
