<svg xmlns="http://www.w3.org/2000/svg" viewBox="0 0 820 1040">
  <rect width="820" height="1040" rx="28" fill="#fffaf0"/>
  <rect x="30" y="30" width="760" height="760" rx="6" fill="#ffffff" stroke="#101820" stroke-width="8"/>
  <defs>
    <linearGradient id="sky" x1="0" x2="0" y1="0" y2="1">
      <stop offset="0" stop-color="#b8ecff"/>
      <stop offset="1" stop-color="#94d66f"/>
    </linearGradient>
    <linearGradient id="stage" x1="0" x2="0" y1="0" y2="1">
      <stop offset="0" stop-color="#7b3f73"/>
      <stop offset=".55" stop-color="#f1b9d1"/>
      <stop offset="1" stop-color="#f6d18f"/>
    </linearGradient>
  </defs>
  <g stroke="#101820" stroke-width="5">
    <rect x="44" y="44" width="236" height="356" fill="#fff2c7"/>
    <rect x="292" y="44" width="236" height="356" fill="url(#sky)"/>
    <rect x="540" y="44" width="236" height="356" fill="#c2f1ec"/>
    <rect x="44" y="412" width="236" height="356" fill="#ffb08e"/>
    <rect x="292" y="412" width="236" height="356" fill="#ffe58f"/>
    <rect x="540" y="412" width="236" height="356" fill="url(#stage)"/>
  </g>
  <g fill="#2f3b46" stroke="#101820" stroke-linecap="round" stroke-linejoin="round">
    <g transform="translate(90 75)">
      <path d="M58 100 70 18l42 46c33-14 72-14 105 0l44-46 8 82 34 55c-27 47-72 70-134 70s-106-23-137-70z" stroke-width="7"/>
      <path d="M79 34 102 76l-27 16zM234 76l28-42-3 58z" fill="#ff7ad8" stroke-width="5"/>
      <path d="M87 130c35 5 65 13 86 24-6 27-25 45-52 45-31 0-53-23-53-53 0-6 1-11 3-16zM255 130c-35 5-65 13-86 24 6 27 25 45 52 45 31 0 53-23 53-53 0-6-1-11-3-16z" fill="#ffda32" stroke-width="6"/>
      <circle cx="128" cy="143" r="10" fill="#101820" stroke="none"/><circle cx="214" cy="143" r="10" fill="#101820" stroke="none"/>
      <path d="M153 203c12-12 28-12 40 0-11 11-29 11-40 0z" fill="#ff7ad8" stroke-width="6"/>
      <path d="M115 16c44-16 96-14 138 0l-7 22c-40-16-82-16-123 0z" fill="#1f2937" stroke-width="5"/>
      <path d="M154 217v22" stroke-width="8"/>
      <path d="M98 225c-44 8-79 39-93 83 41-29 87-35 139-18z" fill="#7c4a2d" stroke-width="6"/>
    </g>
    <g transform="translate(320 92)">
      <path d="M43 115 55 40l39 43c31-13 70-13 101 0l41-43 10 75 32 52c-29 44-73 66-118 66s-90-22-122-66z" stroke-width="7"/>
      <path d="M64 55 87 94l-27 16zM214 94l27-39-2 55z" fill="#ff7ad8" stroke-width="5"/>
      <path d="M78 145c32 5 57 12 77 22-5 24-24 41-48 41-28 0-50-22-50-50 0-5 1-9 2-13zM229 145c-32 5-57 12-77 22 5 24 24 41 48 41 28 0 50-22 50-50 0-5-1-9-2-13z" fill="#ffda32" stroke-width="6"/>
      <circle cx="118" cy="157" r="9" fill="#101820" stroke="none"/><circle cx="193" cy="157" r="9" fill="#101820" stroke="none"/>
      <path d="M82 230h150v116H82z" fill="#16324d" stroke-width="7"/>
      <text x="157" y="274" fill="#fff" font-size="34" font-weight="900" text-anchor="middle" font-family="Arial">1</text>
      <circle cx="248" cy="344" r="28" fill="#fff" stroke-width="5"/>
    </g>
    <g transform="translate(575 88)">
      <path d="M26 112 38 38l39 43c31-13 70-13 101 0l41-43 10 75 32 52c-29 44-73 66-118 66s-90-22-122-66z" stroke-width="7"/>
      <path d="M47 53 70 92l-27 16zM197 92l27-39-2 55z" fill="#ff7ad8" stroke-width="5"/>
      <path d="M61 142c32 5 57 12 77 22-5 24-24 41-48 41-28 0-50-22-50-50 0-5 1-9 2-13zM212 142c-32 5-57 12-77 22 5 24 24 41 48 41 28 0 50-22 50-50 0-5-1-9-2-13z" fill="#ffda32" stroke-width="6"/>
      <circle cx="101" cy="154" r="9" fill="#101820" stroke="none"/><circle cx="176" cy="154" r="9" fill="#101820" stroke="none"/>
      <path d="M24 235c-28-6-34 54-8 62 31 10 40-53 8-62zM211 227c32 11 54 40 60 77" fill="none" stroke-width="14"/>
      <path d="M0 28h74" transform="rotate(-18 20 260)" stroke-width="7"/>
    </g>
    <g transform="translate(70 455)">
      <path d="M58 110 70 36l39 43c31-13 70-13 101 0l41-43 10 75 32 52c-29 44-73 66-118 66s-90-22-122-66z" stroke-width="7"/>
      <path d="M79 51 102 90l-27 16zM229 90l27-39-2 55z" fill="#ff7ad8" stroke-width="5"/>
      <path d="M93 140c32 5 57 12 77 22-5 24-24 41-48 41-28 0-50-22-50-50 0-5 1-9 2-13zM244 140c-32 5-57 12-77 22 5 24 24 41 48 41 28 0 50-22 50-50 0-5-1-9-2-13z" fill="#ffda32" stroke-width="6"/>
      <circle cx="133" cy="152" r="9" fill="#101820" stroke="none"/><circle cx="208" cy="152" r="9" fill="#101820" stroke="none"/>
      <path d="M40 318h210l76 54H105z" fill="#7dd3fc" stroke-width="6"/>
      <path d="M210 250l70 32" stroke-width="14"/><circle cx="302" cy="292" r="28" fill="#ef4444" stroke-width="6"/>
    </g>
    <g transform="translate(323 430)">
      <path d="M67 230 79 156l39 43c31-13 70-13 101 0l41-43 10 75 32 52c-29 44-73 66-118 66s-90-22-122-66z" stroke-width="7"/>
      <path d="M88 171 111 210l-27 16zM238 210l27-39-2 55z" fill="#ff7ad8" stroke-width="5"/>
      <path d="M102 260c32 5 57 12 77 22-5 24-24 41-48 41-28 0-50-22-50-50 0-5 1-9 2-13zM253 260c-32 5-57 12-77 22 5 24 24 41 48 41 28 0 50-22 50-50 0-5-1-9-2-13z" fill="#ffda32" stroke-width="6"/>
      <path d="M35 400h292" stroke-width="18"/><rect x="70" y="348" width="230" height="70" rx="18" fill="#c58a54" stroke-width="6"/>
      <path d="M95 124 170 32M280 30 205 124" fill="none" stroke-width="26"/>
    </g>
    <g transform="translate(563 470)">
      <path d="M30 112 42 38l39 43c31-13 70-13 101 0l41-43 10 75 32 52c-29 44-73 66-118 66s-90-22-122-66z" stroke-width="7"/>
      <path d="M51 53 74 92l-27 16zM201 92l27-39-2 55z" fill="#ff7ad8" stroke-width="5"/>
      <path d="M65 142c32 5 57 12 77 22-5 24-24 41-48 41-28 0-50-22-50-50 0-5 1-9 2-13zM216 142c-32 5-57 12-77 22 5 24 24 41 48 41 28 0 50-22 50-50 0-5-1-9-2-13z" fill="#ffda32" stroke-width="6"/>
      <path d="M48 225c54 34 119 34 174 0l18 54c-69 36-139 36-209 0z" fill="#d8c1ff" stroke-width="6"/>
      <path d="M14 214c60 33 141 37 241 12" fill="none" stroke-width="14"/>
    </g>
  </g>
  <text x="410" y="846" fill="#0f172a" font-size="38" font-weight="950" text-anchor="middle" font-family="Arial, sans-serif">VOTRE PLANNING EPS, SIMPLIFIE</text>
  <text x="410" y="900" fill="#0f172a" font-size="28" font-weight="850" text-anchor="middle" font-family="Arial, sans-serif">Construisez et consultez votre emploi du temps</text>
  <text x="410" y="936" fill="#0f172a" font-size="28" font-weight="850" text-anchor="middle" font-family="Arial, sans-serif">EPS en un clin d'oeil.</text>
  <text x="410" y="982" fill="#0f172a" font-size="22" font-weight="800" text-anchor="middle" font-family="Arial, sans-serif">Un espace sur-mesure pour chaque etablissement.</text>
</svg>
